<mxfile host="app.diagrams.net" modified="2024-02-26T08:05:37.617Z" agent="Mozilla/5.0 (Macintosh; Intel Mac OS X 10_15_7) AppleWebKit/537.36 (KHTML, like Gecko) Chrome/121.0.0.0 Safari/537.36" version="23.1.6" etag="i0T5a8rill1FG1HSiSQ4" type="github">
  <diagram name="第 1 页" id="dOtopXfgJh1IAa3JyWLv">
    <mxGraphModel>
      <root>
        <mxCell id="0" />
        <mxCell id="1" parent="0" />
      </root>
    </mxGraphModel>
  </diagram>
</mxfile>
